PathFileType	4	(X/Y/Z)	 New Session 104.trc
DataRate	CameraRate	NumFrames	NumMarkers	Units	OrigDataRate	OrigDataStartFrame	OrigNumFrames
100	100	19	14	m	100	413	660
Frame#	Time	C7			T8			IJ			PX			AA			AC			AI			TS			SC			GH			LE			ME			US			RS			
		X1	Y1	Z1	X2	Y2	Z2	X3	Y3	Z3	X4	Y4	Z4	X5	Y5	Z5	X6	Y6	Z6	X7	Y7	Z7	X8	Y8	Z8	X9	Y9	Z9	X10	Y10	Z10	X11	Y11	Z11	X12	Y12	Z12	X13	Y13	Z13	X14	Y14	Z14	
413	4.1300	-0.015607	0.100706	0.154662	0.002977	-0.118129	0.213735	-0.021330	0.004292	-0.013475	-0.014112	-0.137915	-0.082155	0.165009	0.046147	0.162141	0.103091	0.095668	0.104569	0.063596	0.024161	0.202654	0.084952	-0.092243	0.205997	0.001470	0.016629	-0.009850	0.154132	0.082542	0.142597	0.405185	0.114232	0.056542	0.403601	0.074001	-0.026966	0.664604	0.176470	-0.027799	0.639828	0.249551	-0.018269	
414	4.1400	-0.015271	0.100685	0.154590	0.002820	-0.118141	0.213794	-0.021142	0.004134	-0.013490	-0.014109	-0.138060	-0.082174	0.165585	0.045477	0.162057	0.103985	0.095345	0.104221	0.063761	0.024068	0.202616	0.084788	-0.092446	0.206137	0.001741	0.016469	-0.009851	0.155490	0.082147	0.142490	0.407635	0.106608	0.055863	0.404802	0.066044	-0.027564	0.668405	0.161391	-0.029214	0.645658	0.235089	-0.019839	
415	4.1500	-0.014985	0.100650	0.154576	0.002638	-0.118157	0.213859	-0.020846	0.004006	-0.013543	-0.014082	-0.138183	-0.082192	0.166067	0.044857	0.162019	0.104839	0.094965	0.103917	0.063865	0.023956	0.202618	0.084603	-0.092656	0.206298	0.002092	0.016330	-0.009828	0.156838	0.081727	0.142334	0.409940	0.098729	0.055172	0.405808	0.057783	-0.028051	0.671794	0.145951	-0.030788	0.651144	0.220183	-0.021493	
416	4.1600	-0.014810	0.100619	0.154609	0.002446	-0.118175	0.213933	-0.020487	0.003924	-0.013621	-0.014035	-0.138275	-0.082218	0.166438	0.044242	0.161969	0.105672	0.094513	0.103587	0.063887	0.023844	0.202620	0.084413	-0.092860	0.206478	0.002485	0.016210	-0.009789	0.158152	0.081222	0.142075	0.412075	0.090581	0.054470	0.406623	0.049249	-0.028449	0.674762	0.130151	-0.032492	0.656297	0.204831	-0.023189	
417	4.1700	-0.014748	0.100613	0.154659	0.002261	-0.118191	0.214013	-0.020148	0.003883	-0.013683	-0.013960	-0.138347	-0.082266	0.166754	0.043565	0.161862	0.106512	0.093993	0.103188	0.063851	0.023751	0.202585	0.084231	-0.093041	0.206676	0.002851	0.016085	-0.009743	0.159426	0.080598	0.141715	0.414000	0.082212	0.053745	0.407222	0.040524	-0.028837	0.677303	0.114002	-0.034269	0.661123	0.189062	-0.024897	
418	4.1800	-0.014753	0.100632	0.154699	0.002093	-0.118205	0.214094	-0.019883	0.003859	-0.013700	-0.013852	-0.138433	-0.082339	0.167101	0.042787	0.161676	0.107391	0.093438	0.102719	0.063813	0.023680	0.202497	0.084059	-0.093193	0.206887	0.003144	0.015924	-0.009697	0.160668	0.079851	0.141291	0.415693	0.073699	0.053002	0.407599	0.031728	-0.029318	0.679414	0.097524	-0.036054	0.665603	0.172925	-0.026621	
419	4.1900	-0.014752	0.100655	0.154714	0.001944	-0.118217	0.214171	-0.019694	0.003817	-0.013675	-0.013724	-0.138565	-0.082421	0.167543	0.041928	0.161420	0.108326	0.092895	0.102208	0.063825	0.023614	0.202365	0.083890	-0.093320	0.207105	0.003361	0.015718	-0.009650	0.161914	0.079010	0.140839	0.417157	0.065098	0.052268	0.407759	0.022950	-0.029963	0.681094	0.080745	-0.037790	0.669691	0.156470	-0.028394	
420	4.2000	-0.014685	0.100651	0.154699	0.001809	-0.118230	0.214236	-0.019548	0.003731	-0.013637	-0.013622	-0.138757	-0.082488	0.168092	0.041047	0.161133	0.109325	0.092399	0.101688	0.063914	0.023524	0.202199	0.083723	-0.093442	0.207321	0.003526	0.015492	-0.009589	0.163225	0.078158	0.140380	0.418411	0.056427	0.051552	0.407696	0.014155	-0.030748	0.682335	0.063693	-0.039451	0.673337	0.139731	-0.030251	
421	4.2100	-0.014525	0.100602	0.154661	0.001685	-0.118241	0.214291	-0.019421	0.003609	-0.013607	-0.013580	-0.138993	-0.082525	0.168709	0.040205	0.160851	0.110366	0.091948	0.101179	0.064073	0.023391	0.202008	0.083565	-0.093577	0.207528	0.003675	0.015291	-0.009495	0.164631	0.077369	0.139918	0.419469	0.047684	0.050823	0.407378	0.005186	-0.031540	0.683128	0.046393	-0.041041	0.676499	0.122725	-0.032213	
422	4.2200	-0.014283	0.100516	0.154613	0.001570	-0.118247	0.214339	-0.019315	0.003480	-0.013572	-0.013589	-0.139229	-0.082528	0.169328	0.039445	0.160584	0.111412	0.091503	0.100663	0.064269	0.023219	0.201802	0.083429	-0.093740	0.207718	0.003845	0.015130	-0.009343	0.166106	0.076650	0.139431	0.420324	0.038868	0.050032	0.406750	-0.004065	-0.032188	0.683454	0.028863	-0.042586	0.679137	0.105451	-0.034290	
423	4.2300	-0.014007	0.100427	0.154576	0.001472	-0.118243	0.214388	-0.019234	0.003380	-0.013517	-0.013609	-0.139417	-0.082516	0.169895	0.038767	0.160309	0.112435	0.091006	0.100091	0.064477	0.023034	0.201587	0.083324	-0.093928	0.207885	0.004062	0.014949	-0.009103	0.167603	0.075945	0.138873	0.420961	0.029981	0.049175	0.405792	-0.013556	-0.032621	0.683292	0.011120	-0.044122	0.681235	0.087905	-0.036464	
424	4.2400	-0.013759	0.100372	0.154574	0.001396	-0.118225	0.214445	-0.019160	0.003323	-0.013440	-0.013604	-0.139538	-0.082538	0.170396	0.038128	0.159993	0.113453	0.090412	0.099419	0.064691	0.022871	0.201361	0.083254	-0.094130	0.208022	0.004338	0.014672	-0.008786	0.169092	0.075172	0.138207	0.421349	0.020998	0.048284	0.404537	-0.023189	-0.032886	0.682616	-0.006819	-0.045672	0.682801	0.070093	-0.038685	
425	4.2500	-0.013579	0.100362	0.154614	0.001350	-0.118195	0.214515	-0.019072	0.003273	-0.013349	-0.013551	-0.139603	-0.082656	0.170883	0.037449	0.159610	0.114515	0.089696	0.098623	0.064929	0.022747	0.201110	0.083217	-0.094326	0.208135	0.004650	0.014332	-0.008482	0.170564	0.074256	0.137429	0.421458	0.011863	0.047374	0.403020	-0.032867	-0.033104	0.681405	-0.024928	-0.047238	0.683857	0.052045	-0.040887	
426	4.2600	-0.013460	0.100377	0.154676	0.001336	-0.118154	0.214596	-0.018972	0.003188	-0.013249	-0.013455	-0.139649	-0.082866	0.171441	0.036660	0.159151	0.115674	0.088864	0.097717	0.065212	0.022648	0.200823	0.083210	-0.094491	0.208242	0.004956	0.014025	-0.008277	0.172026	0.073156	0.136570	0.421292	0.002553	0.046438	0.401261	-0.042489	-0.033407	0.679644	-0.043171	-0.048799	0.684415	0.033806	-0.043010	
427	4.2700	-0.013349	0.100384	0.154722	0.001352	-0.118109	0.214678	-0.018870	0.003056	-0.013148	-0.013338	-0.139722	-0.083056	0.172126	0.035729	0.158622	0.116955	0.087973	0.096764	0.065544	0.022541	0.200510	0.083232	-0.094617	0.208372	0.005238	0.013793	-0.008186	0.173505	0.071890	0.135672	0.420886	-0.006897	0.045468	0.399294	-0.051961	-0.033911	0.677320	-0.061495	-0.050325	0.684475	0.015435	-0.045020	
428	4.2800	-0.013159	0.100367	0.154711	0.001394	-0.118064	0.214748	-0.018758	0.002896	-0.013065	-0.013233	-0.139843	-0.083156	0.172935	0.034674	0.158031	0.118338	0.087094	0.095828	0.065918	0.022399	0.200190	0.083284	-0.094713	0.208541	0.005507	0.013613	-0.008169	0.175053	0.070531	0.134759	0.420268	-0.016430	0.044470	0.397153	-0.061280	-0.034679	0.674429	-0.079844	-0.051783	0.684019	-0.003023	-0.046912	
429	4.2900	-0.012809	0.100327	0.154632	0.001458	-0.118023	0.214800	-0.018611	0.002738	-0.013020	-0.013158	-0.139998	-0.083187	0.173824	0.033549	0.157372	0.119763	0.086266	0.094940	0.066334	0.022212	0.199876	0.083368	-0.094805	0.208736	0.005755	0.013445	-0.008174	0.176692	0.069167	0.133828	0.419426	-0.026003	0.043463	0.394774	-0.070545	-0.035658	0.670966	-0.098154	-0.053153	0.683028	-0.021530	-0.048702	
430	4.3000	-0.012254	0.100277	0.154499	0.001545	-0.117987	0.214833	-0.018399	0.002604	-0.013027	-0.013130	-0.140161	-0.083195	0.174756	0.032438	0.156656	0.121170	0.085490	0.094099	0.066811	0.021987	0.199563	0.083476	-0.094928	0.208912	0.005980	0.013263	-0.008172	0.178390	0.067842	0.132856	0.418322	-0.035577	0.042471	0.392048	-0.079822	-0.036688	0.666941	-0.116365	-0.054428	0.681484	-0.040053	-0.050402	
431	4.3100	-0.011520	0.100232	0.154362	0.001660	-0.117951	0.214848	-0.018103	0.002503	-0.013081	-0.013140	-0.140321	-0.083214	0.175703	0.031403	0.155930	0.122532	0.084739	0.093280	0.067367	0.021745	0.199242	0.083596	-0.095109	0.209014	0.006216	0.013051	-0.008156	0.180088	0.066537	0.131818	0.416926	-0.045102	0.041511	0.388986	-0.089032	-0.037566	0.662371	-0.134424	-0.055608	0.679384	-0.058548	-0.052018	
